<?xml version="1.0" encoding="UTF-8"?>
<svg xmlns="http://www.w3.org/2000/svg" xmlns:xlink="http://www.w3.org/1999/xlink" width="64" height="64" viewBox="0 0 64 64" version="1.1">
<g id="surface1">
<path style=" stroke:none;fill-rule:nonzero;fill:rgb(93.333333%,93.333333%,93.333333%);fill-opacity:1;" d="M 62.3125 16.996094 L 59.558594 13.894531 C 57.3125 11.367188 53.671875 11.363281 51.421875 13.894531 L 42.667969 23.714844 L 42.667969 16.496094 C 42.667969 14.910156 42.101562 13.371094 41.101562 12.246094 L 31.78125 1.761719 C 30.78125 0.636719 29.425781 0 28.015625 0 L 5.332031 0 C 2.390625 0.0117188 0 2.699219 0 6.011719 L 0 58 C 0 61.3125 2.390625 64 5.332031 64 L 37.335938 64 C 40.277344 64 42.667969 61.3125 42.667969 58 L 42.667969 47.933594 C 43.367188 47.347656 44.070312 46.765625 44.6875 46.066406 L 62.3125 26.152344 C 63.402344 24.929688 64 23.304688 64 21.574219 C 64 19.84375 63.402344 18.21875 62.3125 16.996094 Z M 28.449219 4.074219 C 28.757812 4.160156 29.035156 4.335938 29.269531 4.597656 L 38.589844 15.082031 C 38.824219 15.347656 38.980469 15.660156 39.058594 16.007812 L 28.449219 16.007812 Z M 39.113281 58 C 39.113281 59.101562 38.3125 60 37.335938 60 L 5.332031 60 C 4.355469 60 3.554688 59.101562 3.554688 58 L 3.554688 6.011719 C 3.554688 4.910156 4.355469 4 5.332031 4 L 24.890625 4 L 24.890625 17.007812 C 24.890625 18.671875 26.082031 20 27.558594 20 L 39.113281 20 L 39.113281 27.691406 L 33.722656 33.722656 C 30.375 37.464844 28.453125 42.660156 28.449219 47.972656 C 28.011719 47.933594 27.617188 47.667969 27.40625 47.1875 C 26.078125 44.207031 22.269531 43.394531 20.074219 45.414062 L 18.53125 40.214844 C 18.167969 38.988281 17.148438 38.164062 16 38.164062 C 14.851562 38.164062 13.835938 38.984375 13.46875 40.214844 L 11.445312 47.046875 C 11.277344 47.617188 10.800781 48 10.269531 48 L 8.890625 48 C 7.90625 48 7.109375 48.894531 7.109375 50 C 7.109375 51.105469 7.90625 52 8.890625 52 L 10.269531 52 C 12.335938 52 14.167969 50.515625 14.820312 48.308594 L 16 44.320312 L 17.867188 50.632812 C 18.371094 52.320312 20.4375 52.484375 21.144531 50.894531 L 21.996094 48.976562 C 22.441406 47.96875 23.753906 47.902344 24.242188 49.019531 C 25.050781 50.828125 26.65625 51.960938 28.445312 52 L 32 52 C 34.449219 52 36.882812 51.386719 39.113281 50.300781 Z M 42.164062 43.246094 C 39.476562 46.289062 35.816406 48 32 48 L 32 47.996094 C 32 43.703125 33.523438 39.585938 36.230469 36.558594 L 49.625 21.574219 L 55.488281 28.171875 Z M 59.800781 23.324219 L 57.445312 25.972656 L 51.578125 19.375 L 53.933594 16.726562 C 54.792969 15.757812 56.1875 15.757812 57.046875 16.726562 L 59.800781 19.824219 C 60.660156 20.789062 60.660156 22.359375 59.800781 23.324219 Z M 59.800781 23.324219 "/>
</g>
</svg>
