<?xml version="1.0" encoding="UTF-8"?>
<svg xmlns="http://www.w3.org/2000/svg" xmlns:xlink="http://www.w3.org/1999/xlink" width="64" height="64" viewBox="0 0 64 64" version="1.1">
<g id="surface1">
<path style=" stroke:none;fill-rule:nonzero;fill:rgb(93.333333%,93.333333%,93.333333%);fill-opacity:1;" d="M 59.199219 36 L 44.800781 36 L 44.800781 26.097656 C 44.800781 22.808594 46.886719 20.054688 49.519531 20 C 50.804688 19.972656 52.046875 20.59375 52.964844 21.722656 C 53.882812 22.847656 54.398438 24.390625 54.398438 26 L 54.398438 27 C 54.398438 27.550781 54.757812 28 55.199219 28 L 56.800781 28 C 57.242188 28 57.601562 27.550781 57.601562 27 L 57.601562 26.125 C 57.601562 20.714844 54.199219 16.1875 49.875 16.007812 C 47.707031 15.914062 45.601562 16.925781 44.039062 18.808594 C 42.480469 20.691406 41.601562 23.289062 41.601562 26 L 41.601562 36 L 40 36 C 37.347656 36 35.199219 38.6875 35.199219 42 L 35.199219 58 C 35.199219 61.3125 37.347656 64 40 64 L 59.199219 64 C 61.851562 64 64 61.3125 64 58 L 64 42 C 64 38.6875 61.851562 36 59.199219 36 Z M 60.800781 58 C 60.800781 59.105469 60.082031 60 59.199219 60 L 40 60 C 39.117188 60 38.398438 59.105469 38.398438 58 L 38.398438 42 C 38.398438 40.894531 39.117188 40 40 40 L 59.199219 40 C 60.082031 40 60.800781 40.894531 60.800781 42 Z M 22.398438 32 C 29.46875 32 35.199219 24.835938 35.199219 16 C 35.199219 7.164062 29.46875 0 22.398438 0 C 15.332031 0 9.601562 7.164062 9.601562 16 C 9.601562 24.835938 15.332031 32 22.398438 32 Z M 22.398438 4 C 27.703125 4 32 9.371094 32 16 C 32 22.628906 27.703125 28 22.398438 28 C 17.097656 28 12.800781 22.628906 12.800781 16 C 12.800781 9.371094 17.097656 4 22.398438 4 Z M 49.601562 46 C 47.832031 46 46.398438 47.789062 46.398438 50 C 46.398438 52.210938 47.832031 54 49.601562 54 C 51.367188 54 52.800781 52.210938 52.800781 50 C 52.800781 47.789062 51.367188 46 49.601562 46 Z M 4.800781 60 C 3.917969 60 3.199219 59.105469 3.199219 58 L 3.199219 52.800781 C 3.203125 45.734375 7.785156 40.003906 13.441406 40 C 15.398438 40 17.351562 42 22.398438 42 C 27.449219 42 29.398438 40 31.359375 40 C 31.628906 40 31.890625 40.074219 32.148438 40.101562 C 32.363281 38.71875 32.8125 37.410156 33.460938 36.261719 C 32.761719 36.105469 32.058594 36.015625 31.351562 36 C 28.480469 36 27.101562 38 22.390625 38 C 17.679688 38 16.308594 36 13.429688 36 C 6.019531 36 0 43.523438 0 52.800781 L 0 58 C 0 61.3125 2.148438 64 4.800781 64 L 33.640625 64 C 32.910156 62.824219 32.402344 61.457031 32.160156 60 Z M 4.800781 60 "/>
</g>
</svg>
